<svg id="Capa_1" data-name="Capa 1" xmlns="http://www.w3.org/2000/svg" viewBox="0 0 461.3 127.8"><defs><style>.cls-1,.cls-2{fill:#fff;}.cls-2{fill-rule:evenodd;}</style></defs><title>GUE_LOGO_BCO</title><path class="cls-1" d="M434.2,366.3h17v58.2q0,17.2-7,25.3-9.3,11-28,11a49.2,49.2,0,0,1-16.8-2.5,30.2,30.2,0,0,1-11.5-7.3,29.8,29.8,0,0,1-6.9-11.8h18.8a15.5,15.5,0,0,0,6.4,4.3,26.6,26.6,0,0,0,9.3,1.5c4.6,0,8.3-.7,11-2.1a12.7,12.7,0,0,0,5.9-5.5q1.7-3.4,1.7-11.6a28.3,28.3,0,0,1-9.4,6.5,30.2,30.2,0,0,1-11.2,2,30.7,30.7,0,0,1-23.1-9.9q-9.4-9.8-9.4-25t10-26a29.9,29.9,0,0,1,21.6-8.9,28.5,28.5,0,0,1,11.1,2.2,35.1,35.1,0,0,1,10.5,7.1v-7.5Zm-17.7,14.2a17.7,17.7,0,0,0-13.3,5.4,18.7,18.7,0,0,0-5.2,13.6q0,8.5,5.4,13.9a18.1,18.1,0,0,0,13.5,5.4,17.5,17.5,0,0,0,13.1-5.3c3.4-3.5,5.2-8.2,5.2-13.9s-1.7-10.3-5.2-13.8a17.9,17.9,0,0,0-13.4-5.3Z" transform="translate(-381 -333)"/><path class="cls-1" d="M459.4,366.3h17.2V399c0,6.4.4,10.8,1.3,13.3a11.7,11.7,0,0,0,4.2,5.8,12,12,0,0,0,7.2,2.1,12.5,12.5,0,0,0,7.2-2,12,12,0,0,0,4.4-6q1.1-2.9,1-12.6V366.3h17.1v28.8q0,17.8-2.8,24.4a26.4,26.4,0,0,1-10.1,12.3q-6.7,4.3-17,4.3c-7.5,0-13.5-1.7-18.1-5a26.4,26.4,0,0,1-9.7-13.9c-1.3-4.1-2-11.6-2-22.5V366.3Z" transform="translate(-381 -333)"/><path class="cls-1" d="M595.4,405.2H540.6a18.3,18.3,0,0,0,6.4,11.5q5.1,4.3,13.1,4.3a22.8,22.8,0,0,0,16.4-6.7l14.4,6.8A34,34,0,0,1,578,432.3a40.2,40.2,0,0,1-17.8,3.6q-16,0-26-10.1t-10.1-25.3c0-10.4,3.3-19,10-25.8s15.1-10.3,25.1-10.3,19.4,3.4,26.1,10.3,10.1,15.9,10.1,27.1v3.3Zm-17.1-13.4a17.2,17.2,0,0,0-6.7-9.3,19.3,19.3,0,0,0-11.5-3.6,20.4,20.4,0,0,0-12.5,4q-3.4,2.5-6.2,8.8Z" transform="translate(-381 -333)"/><path class="cls-1" d="M617.2,340v33.7a32.3,32.3,0,0,1,10-6.9,28.9,28.9,0,0,1,11.5-2.3,29.7,29.7,0,0,1,22.6,10.1q9.3,10.1,9.3,25.8T661,425.8Q651.3,436,638.2,436a28.5,28.5,0,0,1-10.9-2.1,33.6,33.6,0,0,1-10.1-6.8v7.2H600.2V340Zm17.9,40.2a17.8,17.8,0,0,0-13.4,5.5c-3.5,3.6-5.3,8.4-5.3,14.3s1.8,10.9,5.3,14.6a17.7,17.7,0,0,0,13.4,5.6,17.3,17.3,0,0,0,13.2-5.7c3.6-3.8,5.3-8.6,5.3-14.5s-1.7-10.6-5.2-14.3a17.4,17.4,0,0,0-13.2-5.6Z" transform="translate(-381 -333)"/><path class="cls-1" d="M717.3,375.8l-10.6,10.6q-6.4-6.4-11.7-6.4a7.3,7.3,0,0,0-4.5,1.2,3.7,3.7,0,0,0-1.6,3,3.8,3.8,0,0,0,1,2.5,19.6,19.6,0,0,0,5.1,3.2l6.2,3.1q9.9,4.9,13.6,9.9a20.7,20.7,0,0,1-3,27q-6.7,6-17.8,6.1-14.9,0-23.7-11.6l10.5-11.4a24,24,0,0,0,7,5.6,15.7,15.7,0,0,0,7.2,2.2,8.4,8.4,0,0,0,5.4-1.6,4.7,4.7,0,0,0,2.1-3.8q0-3.9-7.4-7.7l-5.8-2.9q-16.5-8.3-16.5-20.8a18,18,0,0,1,6.2-13.8q6.2-5.7,15.9-5.7a27.6,27.6,0,0,1,22.3,11.3Z" transform="translate(-381 -333)"/><path class="cls-1" d="M729.8,338.3a10.6,10.6,0,0,1,7.7,3.2,10.8,10.8,0,0,1,3.2,7.9,10.6,10.6,0,0,1-3.2,7.8,10.3,10.3,0,0,1-7.6,3.2,10.4,10.4,0,0,1-7.8-3.3,10.9,10.9,0,0,1-3.2-8,10.8,10.8,0,0,1,10.9-10.9Zm-8.6,28h17.1v68H721.2v-68Z" transform="translate(-381 -333)"/><polygon class="cls-1" points="367.1 8.2 384.1 8.2 384.1 33.3 394.2 33.3 394.2 48 384.1 48 384.1 101.2 367.1 101.2 367.1 48 358.4 48 358.4 33.3 367.1 33.3 367.1 8.2 367.1 8.2"/><path class="cls-1" d="M842.3,405.2H787.5a18.3,18.3,0,0,0,6.4,11.5Q799,421,807,421a22.8,22.8,0,0,0,16.4-6.7l14.4,6.8a34,34,0,0,1-12.9,11.3,40.2,40.2,0,0,1-17.8,3.6q-16,0-26-10.1T771,400.6c0-10.4,3.3-19,10-25.8s15.1-10.3,25.1-10.3,19.4,3.4,26.1,10.3,10.1,15.9,10.1,27.1v3.3Zm-17.1-13.4a17.2,17.2,0,0,0-6.7-9.3A19.3,19.3,0,0,0,807,379a20.4,20.4,0,0,0-12.5,4q-3.4,2.5-6.2,8.8Z" transform="translate(-381 -333)"/><polygon class="cls-2" points="332.8 16 348.8 0 364.9 16 348.8 32.1 332.8 16 332.8 16"/><polygon class="cls-2" points="54.1 32.7 48.4 32.7 48.4 67.6 54.1 67.6 54.1 32.7 54.1 32.7"/><polygon class="cls-2" points="241.2 6.2 235.4 6.2 235.4 68 241.2 68 241.2 6.2 241.2 6.2"/></svg>