<svg id="Capa_1" data-name="Capa 1" xmlns="http://www.w3.org/2000/svg" viewBox="0 0 465.1 141"><defs><style>.cls-1{fill:#3c3c3b;}.cls-2{fill:#e30613;}.cls-2,.cls-4{fill-rule:evenodd;}.cls-3{fill:#9d9d9c;}.cls-4{fill:#fff;}</style></defs><title>GUEBSITE_LOGOTIPO-1</title><path class="cls-1" d="M432.2,359.3h17v58.2q0,17.2-7,25.3-9.3,11-28,11a49.2,49.2,0,0,1-16.8-2.5,30.2,30.2,0,0,1-11.5-7.3,29.8,29.8,0,0,1-6.9-11.8h18.8a15.5,15.5,0,0,0,6.4,4.3,26.6,26.6,0,0,0,9.3,1.5c4.6,0,8.3-.7,11-2.1a12.7,12.7,0,0,0,5.9-5.5q1.7-3.4,1.7-11.6a28.3,28.3,0,0,1-9.4,6.5,30.2,30.2,0,0,1-11.2,2,30.7,30.7,0,0,1-23.1-9.9q-9.4-9.8-9.4-25t10-26a29.9,29.9,0,0,1,21.6-8.9,28.5,28.5,0,0,1,11.1,2.2,35.1,35.1,0,0,1,10.5,7.1v-7.5Zm-17.7,14.2a17.7,17.7,0,0,0-13.3,5.4,18.7,18.7,0,0,0-5.2,13.6q0,8.5,5.4,13.9a18.1,18.1,0,0,0,13.5,5.4,17.5,17.5,0,0,0,13.1-5.3c3.4-3.5,5.2-8.2,5.2-13.9s-1.7-10.3-5.2-13.8a17.9,17.9,0,0,0-13.4-5.3Z" transform="translate(-379 -326)"/><path class="cls-1" d="M457.4,359.3h17.2V392c0,6.4.4,10.8,1.3,13.3a11.7,11.7,0,0,0,4.2,5.8,12,12,0,0,0,7.2,2.1,12.5,12.5,0,0,0,7.2-2,12,12,0,0,0,4.4-6q1.1-2.9,1-12.6V359.3h17.1v28.8q0,17.8-2.8,24.4a26.4,26.4,0,0,1-10.1,12.3q-6.7,4.3-17,4.3c-7.5,0-13.5-1.7-18.1-5a26.4,26.4,0,0,1-9.7-13.9c-1.3-4.1-2-11.6-2-22.5V359.3Z" transform="translate(-379 -326)"/><path class="cls-1" d="M593.4,398.2H538.6a18.3,18.3,0,0,0,6.4,11.5q5.1,4.3,13.1,4.3a22.8,22.8,0,0,0,16.4-6.7l14.4,6.8A34,34,0,0,1,576,425.3a40.2,40.2,0,0,1-17.8,3.6q-16,0-26-10.1t-10.1-25.3c0-10.4,3.3-19,10-25.8s15.1-10.3,25.1-10.3,19.4,3.4,26.1,10.3,10.1,15.9,10.1,27.1v3.3Zm-17.1-13.4a17.2,17.2,0,0,0-6.7-9.3,19.3,19.3,0,0,0-11.5-3.6,20.4,20.4,0,0,0-12.5,4q-3.4,2.5-6.2,8.8Z" transform="translate(-379 -326)"/><path class="cls-1" d="M615.2,333v33.7a32.3,32.3,0,0,1,10-6.9,28.9,28.9,0,0,1,11.5-2.3,29.7,29.7,0,0,1,22.6,10.1q9.3,10.1,9.3,25.8T659,418.8Q649.3,429,636.2,429a28.5,28.5,0,0,1-10.9-2.1,33.6,33.6,0,0,1-10.1-6.8v7.2H598.2V333Zm17.9,40.2a17.8,17.8,0,0,0-13.4,5.5c-3.5,3.6-5.3,8.4-5.3,14.3s1.8,10.9,5.3,14.6a17.7,17.7,0,0,0,13.4,5.6,17.3,17.3,0,0,0,13.2-5.7c3.6-3.8,5.3-8.6,5.3-14.5s-1.7-10.6-5.2-14.3a17.4,17.4,0,0,0-13.2-5.6Z" transform="translate(-379 -326)"/><path class="cls-1" d="M715.3,368.8l-10.6,10.6q-6.4-6.4-11.7-6.4a7.3,7.3,0,0,0-4.5,1.2,3.7,3.7,0,0,0-1.6,3,3.8,3.8,0,0,0,1,2.5,19.6,19.6,0,0,0,5.1,3.2l6.2,3.1q9.9,4.9,13.6,9.9a20.7,20.7,0,0,1-3,27q-6.7,6-17.8,6.1-14.9,0-23.7-11.6l10.5-11.4a24,24,0,0,0,7,5.6,15.7,15.7,0,0,0,7.2,2.2,8.4,8.4,0,0,0,5.4-1.6,4.7,4.7,0,0,0,2.1-3.8q0-3.9-7.4-7.7l-5.8-2.9q-16.5-8.3-16.5-20.8a18,18,0,0,1,6.2-13.8q6.2-5.7,15.9-5.7a27.6,27.6,0,0,1,22.3,11.3Z" transform="translate(-379 -326)"/><path class="cls-1" d="M727.8,331.3a10.6,10.6,0,0,1,7.7,3.2,10.8,10.8,0,0,1,3.2,7.9,10.6,10.6,0,0,1-3.2,7.8,10.3,10.3,0,0,1-7.6,3.2,10.4,10.4,0,0,1-7.8-3.3,10.9,10.9,0,0,1-3.2-8,10.8,10.8,0,0,1,10.9-10.9Zm-8.6,28h17.1v68H719.2v-68Z" transform="translate(-379 -326)"/><polygon class="cls-1" points="367.1 8.2 384.1 8.2 384.1 33.3 394.2 33.3 394.2 48 384.1 48 384.1 101.2 367.1 101.2 367.1 48 358.4 48 358.4 33.3 367.1 33.3 367.1 8.2 367.1 8.2"/><path class="cls-1" d="M840.3,398.2H785.5a18.3,18.3,0,0,0,6.4,11.5Q797,414,805,414a22.8,22.8,0,0,0,16.4-6.7l14.4,6.8a34,34,0,0,1-12.9,11.3,40.2,40.2,0,0,1-17.8,3.6q-16,0-26-10.1T769,393.6c0-10.4,3.3-19,10-25.8s15.1-10.3,25.1-10.3,19.4,3.4,26.1,10.3,10.1,15.9,10.1,27.1v3.3Zm-17.1-13.4a17.2,17.2,0,0,0-6.7-9.3A19.3,19.3,0,0,0,805,372a20.4,20.4,0,0,0-12.5,4q-3.4,2.5-6.2,8.8Z" transform="translate(-379 -326)"/><polygon class="cls-2" points="332.8 16 348.8 0 364.9 16 348.8 32.1 332.8 16 332.8 16"/><polygon class="cls-3" points="197.3 106.4 200.4 106.4 200.4 140.3 197.3 140.3 197.3 106.4 197.3 106.4"/><path class="cls-3" d="M607.2,441.9v24.5h-3.1v-4.2a13.6,13.6,0,0,1-4.4,3.6,12.4,12.4,0,0,1-14.3-2.6,12.6,12.6,0,0,1-3.7-9.2,12.4,12.4,0,0,1,3.7-9,12.1,12.1,0,0,1,8.9-3.8,11.5,11.5,0,0,1,5.5,1.3,12.6,12.6,0,0,1,4.3,3.8v-4.5Zm-12.6,2.4a9.5,9.5,0,0,0-8.4,4.9,10,10,0,0,0,0,9.9,9.7,9.7,0,0,0,3.6,3.7,9.3,9.3,0,0,0,4.8,1.3,9.9,9.9,0,0,0,4.9-1.3,9.1,9.1,0,0,0,3.6-3.5,10,10,0,0,0,1.3-5,9.8,9.8,0,0,0-2.8-7.1,9.3,9.3,0,0,0-6.9-2.9Z" transform="translate(-379 -326)"/><polygon class="cls-3" points="234.8 106.8 238 106.8 238 115.9 243 115.9 243 118.6 238 118.6 238 140.3 234.8 140.3 234.8 118.6 230.5 118.6 230.5 115.9 234.8 115.9 234.8 106.8 234.8 106.8"/><path class="cls-3" d="M624.6,431.8a2.6,2.6,0,0,1,2.6,2.6,2.5,2.5,0,0,1-.8,1.8,2.6,2.6,0,0,1-3.7,0,2.5,2.5,0,0,1-.8-1.8,2.6,2.6,0,0,1,2.6-2.6ZM623,441.9h3.2v24.5H623V441.9Z" transform="translate(-379 -326)"/><path class="cls-3" d="M629.5,441.9h3.1v4.4a13.1,13.1,0,0,1,4.2-3.8,10.3,10.3,0,0,1,5-1.3,8.7,8.7,0,0,1,4.9,1.4,8.3,8.3,0,0,1,3.1,3.8,19.9,19.9,0,0,1,1,7.4v12.6h-3.1V454.7a28.1,28.1,0,0,0-.4-5.6,6.3,6.3,0,0,0-2.1-3.7,6.4,6.4,0,0,0-4.1-1.2,7.8,7.8,0,0,0-5.1,1.9,8.9,8.9,0,0,0-3,4.7,32.5,32.5,0,0,0-.5,6.7v9h-3.1V441.9Z" transform="translate(-379 -326)"/><path class="cls-3" d="M666,441.2a12.1,12.1,0,0,1,9.4,4.1,13.2,13.2,0,0,1-.2,17.8,12.9,12.9,0,0,1-18.4,0,13.1,13.1,0,0,1-.2-17.8,12.1,12.1,0,0,1,9.4-4.1Zm0,3.1a9,9,0,0,0-6.7,2.9,9.7,9.7,0,0,0-2.8,7,9.9,9.9,0,0,0,1.3,4.9,9.1,9.1,0,0,0,3.5,3.5,9.8,9.8,0,0,0,9.6,0,9.1,9.1,0,0,0,3.5-3.5,10,10,0,0,0,1.3-4.9,9.7,9.7,0,0,0-2.8-7,9,9,0,0,0-6.7-2.9Z" transform="translate(-379 -326)"/><path class="cls-3" d="M705.8,441.9v24.5h-3.1v-4.2a13.6,13.6,0,0,1-4.4,3.6,12.4,12.4,0,0,1-14.3-2.6,12.6,12.6,0,0,1-3.7-9.2,12.4,12.4,0,0,1,3.7-9,12.1,12.1,0,0,1,8.9-3.8,11.5,11.5,0,0,1,5.5,1.3,12.6,12.6,0,0,1,4.3,3.8v-4.5Zm-12.6,2.4a9.5,9.5,0,0,0-8.4,4.9,10,10,0,0,0,0,9.9,9.7,9.7,0,0,0,3.6,3.7,9.3,9.3,0,0,0,4.8,1.3,9.9,9.9,0,0,0,4.9-1.3,9.1,9.1,0,0,0,3.6-3.5,10,10,0,0,0,1.3-5,9.8,9.8,0,0,0-2.8-7.1,9.3,9.3,0,0,0-6.9-2.9Z" transform="translate(-379 -326)"/><path class="cls-3" d="M709.6,441.9h3.1v4.2a12.2,12.2,0,0,1,3.4-3.4,9.6,9.6,0,0,1,5-1.4,8.4,8.4,0,0,1,3.4.7,7.2,7.2,0,0,1,2.6,1.9,10.1,10.1,0,0,1,1.8,3.3,11.7,11.7,0,0,1,3.9-4.4,9.3,9.3,0,0,1,5.1-1.5,8,8,0,0,1,4.5,1.3,7.7,7.7,0,0,1,2.9,3.6,19,19,0,0,1,.9,6.9v13.4H743V453a17.6,17.6,0,0,0-.6-5.4,4.9,4.9,0,0,0-1.9-2.4,5.8,5.8,0,0,0-3.2-.9,7,7,0,0,0-4.2,1.4,7.8,7.8,0,0,0-2.8,3.6,22.8,22.8,0,0,0-.9,7.5v9.6h-3.1V453.8a21.4,21.4,0,0,0-.6-6,5.1,5.1,0,0,0-1.9-2.5,5.6,5.6,0,0,0-3.3-1,7,7,0,0,0-4.1,1.3,7.8,7.8,0,0,0-2.8,3.5,19.1,19.1,0,0,0-.9,6.8v10.4h-3.1V441.9Z" transform="translate(-379 -326)"/><path class="cls-3" d="M770.3,458.2l2.6,1.4a14.5,14.5,0,0,1-3,4.1,12,12,0,0,1-3.8,2.4,13.5,13.5,0,0,1-4.8.8q-6,0-9.4-3.9a13.2,13.2,0,0,1-3.4-8.9,13.1,13.1,0,0,1,2.9-8.3,11.7,11.7,0,0,1,9.7-4.6,12.1,12.1,0,0,1,10,4.8,13.2,13.2,0,0,1,2.7,8.4h-22a10,10,0,0,0,2.7,7,8.7,8.7,0,0,0,6.5,2.7,10.3,10.3,0,0,0,3.6-.7,9.6,9.6,0,0,0,3-1.7,14.7,14.7,0,0,0,2.7-3.5Zm0-6.6a10.5,10.5,0,0,0-1.8-4,8.7,8.7,0,0,0-3.2-2.4,9.7,9.7,0,0,0-4.2-.9,8.9,8.9,0,0,0-6.2,2.3,10.5,10.5,0,0,0-2.9,5.1Zm-7.6-21.2h4.8l-6.6,6.9h-3.1l4.9-6.9Z" transform="translate(-379 -326)"/><path class="cls-3" d="M775.2,441.9h3.2v3.6a11.4,11.4,0,0,1,3-3.2,6,6,0,0,1,3.3-1.1,5.8,5.8,0,0,1,2.8.8l-1.6,2.7a4.3,4.3,0,0,0-1.7-.4,4.6,4.6,0,0,0-3,1.3,8.2,8.2,0,0,0-2.2,4,38.5,38.5,0,0,0-.6,8.5v8.3h-3.2V441.9Z" transform="translate(-379 -326)"/><path class="cls-3" d="M788.2,431.8a2.6,2.6,0,0,1,2.6,2.6,2.5,2.5,0,0,1-.8,1.8,2.6,2.6,0,0,1-3.7,0,2.5,2.5,0,0,1-.8-1.8,2.6,2.6,0,0,1,2.6-2.6Zm-1.6,10.1h3.2v24.5h-3.2V441.9Z" transform="translate(-379 -326)"/><path class="cls-3" d="M816.9,447l-2.5,1.6a10.5,10.5,0,0,0-8.8-4.3,10.2,10.2,0,0,0-7.4,2.9,9.4,9.4,0,0,0-3,7,10,10,0,0,0,1.4,5,9.5,9.5,0,0,0,3.7,3.7,10.9,10.9,0,0,0,5.3,1.3,10.7,10.7,0,0,0,8.8-4.3l2.5,1.6a11.8,11.8,0,0,1-4.7,4.1,15.1,15.1,0,0,1-6.7,1.5,13.3,13.3,0,0,1-9.6-3.7,12,12,0,0,1-3.8-9,12.7,12.7,0,0,1,1.8-6.6,12.6,12.6,0,0,1,4.9-4.8,14.4,14.4,0,0,1,7-1.7,15.1,15.1,0,0,1,4.7.7,13.3,13.3,0,0,1,3.8,1.9,10.5,10.5,0,0,1,2.7,3Z" transform="translate(-379 -326)"/><path class="cls-3" d="M844.1,441.9v24.5H841v-4.2a13.6,13.6,0,0,1-4.4,3.6,12.4,12.4,0,0,1-14.3-2.6,12.6,12.6,0,0,1-3.7-9.2,12.4,12.4,0,0,1,3.7-9,12.1,12.1,0,0,1,8.9-3.8,11.5,11.5,0,0,1,5.5,1.3,12.6,12.6,0,0,1,4.3,3.8v-4.5Zm-12.6,2.4a9.5,9.5,0,0,0-8.4,4.9,10,10,0,0,0,0,9.9,9.7,9.7,0,0,0,3.6,3.7,9.3,9.3,0,0,0,4.8,1.3,9.9,9.9,0,0,0,4.9-1.3,9.1,9.1,0,0,0,3.6-3.5,10,10,0,0,0,1.3-5,9.8,9.8,0,0,0-2.8-7.1,9.3,9.3,0,0,0-6.9-2.9Z" transform="translate(-379 -326)"/><polygon class="cls-4" points="54.1 32.7 48.4 32.7 48.4 67.6 54.1 67.6 54.1 32.7 54.1 32.7"/><polygon class="cls-4" points="241.2 6.2 235.4 6.2 235.4 68 241.2 68 241.2 6.2 241.2 6.2"/></svg>